<svg xmlns="http://www.w3.org/2000/svg" version="1.1" xmlns:xlink="http://www.w3.org/1999/xlink" xmlns:svgjs="http://svgjs.dev/svgjs" width="1500" height="1500" viewBox="0 0 1500 1500"><rect width="1500" height="1500" fill="#ffffff"></rect><g transform="matrix(0.6666666666666666,0,0,0.6666666666666666,250,437.6666666666667)"><svg viewBox="0 0 576 360" data-background-color="#ffffff" preserveAspectRatio="xMidYMid meet" height="937" width="1500" xmlns="http://www.w3.org/2000/svg" xmlns:xlink="http://www.w3.org/1999/xlink"><g id="tight-bounds" transform="matrix(1,0,0,1,0,0)"><svg viewBox="0 0 576 360" height="360" width="576"><g><svg></svg></g><g><svg viewBox="0 0 576 360" height="360" width="576"><g><path d="M132.115 90l155.885-90 155.885 90v180l-155.885 90-155.885-90z" fill="#ff0000" fill-rule="nonzero" stroke="none" stroke-width="1" stroke-linecap="butt" stroke-linejoin="miter" stroke-miterlimit="10" stroke-dasharray="" stroke-dashoffset="0" font-family="none" font-weight="none" font-size="none" text-anchor="none" style="mix-blend-mode: normal" data-fill-palette-color="tertiary"></path></g><g transform="matrix(1,0,0,1,238.39234449760767,99)"><svg viewBox="0 0 99.21531100478468 162" height="162" width="99.21531100478468"><g><svg viewBox="0 0 99.21531100478468 162" height="162" width="99.21531100478468"><g><svg viewBox="0 0 99.21531100478468 162" height="162" width="99.21531100478468"><g id="textblocktransform"><svg viewBox="0 0 99.21531100478468 162" height="162" width="99.21531100478468" id="textblock"><g><svg viewBox="0 0 99.21531100478468 162" height="162" width="99.21531100478468"><g transform="matrix(1,0,0,1,0,0)"><svg width="99.21531100478468" viewBox="3.7 -40.8 25.600000000000005 41.8" height="162" data-palette-color="#ffffff"><path d="M6.55-11.55L8.15-3.45Q11.05-1.45 16.3-1.45L16.3-1.45Q19.85-1.45 21.63-3.5 23.4-5.55 23.4-8.4L23.4-8.4Q23.4-9.9 23.15-10.93 22.9-11.95 22.08-13.25 21.25-14.55 19.45-15.85 17.65-17.15 14.75-18.6L14.75-18.6Q11.35-20.3 9.25-21.8 7.15-23.3 6.1-24.9 5.05-26.5 4.7-27.95 4.35-29.4 4.35-31.55L4.35-31.55Q4.35-35.95 7.88-38.38 11.4-40.8 16.2-40.8L16.2-40.8Q22.15-40.8 27.7-37.8L27.7-37.8 27.7-28.2Q26-27.9 24.85-28.2L24.85-28.2 23.25-36.85Q20.05-38.6 16.1-38.6L16.1-38.6Q13.45-38.6 11.63-37.02 9.8-35.45 9.8-32.6L9.8-32.6Q9.8-31 10-30.1 10.2-29.2 11-27.98 11.8-26.75 13.65-25.53 15.5-24.3 18.6-22.8L18.6-22.8Q29.3-17.6 29.3-10.4L29.3-10.4Q29.3-5.3 25.4-2.15 21.5 1 15.2 1L15.2 1Q8.95 1 3.7-1.95L3.7-1.95 3.7-11.55Q5.4-11.85 6.55-11.55L6.55-11.55Z" opacity="1" transform="matrix(1,0,0,1,0,0)" fill="#ffffff" class="wordmark-text-0" data-fill-palette-color="quaternary" id="text-0"></path></svg></g></svg></g></svg></g></svg></g></svg></g></svg></g></svg></g><defs></defs></svg><rect width="576" height="360" fill="none" stroke="none" visibility="hidden"></rect></g></svg></g></svg>